<?xml version="1.0" encoding="UTF-8"?>
<svg version="1.1" xmlns="http://www.w3.org/2000/svg" width="128" height="128">
<path d="M0 0 C2.01098633 1.16259766 2.01098633 1.16259766 3.6875 2.4375 C8.54396745 6.0348833 13.922437 5.46972775 19.70703125 5.37109375 C23 6 23 6 24.92578125 8.72265625 C25.90179758 11.70039334 26.40488501 13.8919586 26.375 17 C26.38660156 18.2065625 26.38660156 18.2065625 26.3984375 19.4375 C26 22 26 22 24.51171875 24.77734375 C22.61407794 28.82270207 22.51834142 32.1547178 22.4375 36.5625 C22.21061513 46.23451796 22.21061513 46.23451796 20 50 C17.7578125 51.765625 17.7578125 51.765625 15.125 53.25 C14.26132813 53.75015625 13.39765625 54.2503125 12.5078125 54.765625 C10.29373543 55.85541994 8.38058268 56.44017067 6 57 C4.41666667 58.41666667 4.41666667 58.41666667 3 60 C-0.31371 62.20914 -1.3446021 62.22481553 -5.1875 62.125 C-6.08855469 62.10695312 -6.98960938 62.08890625 -7.91796875 62.0703125 C-8.60503906 62.04710937 -9.29210937 62.02390625 -10 62 C-10.33 61.01 -10.66 60.02 -11 59 C-11.969375 58.855625 -12.93875 58.71125 -13.9375 58.5625 C-17 58 -17 58 -18 57 C-19.68183948 56.76712992 -21.3712416 56.58735834 -23.0625 56.4375 C-23.98160156 56.35371094 -24.90070312 56.26992187 -25.84765625 56.18359375 C-26.91306641 56.09271484 -26.91306641 56.09271484 -28 56 C-28 55.34 -28 54.68 -28 54 C-29.1446875 54.1546875 -29.1446875 54.1546875 -30.3125 54.3125 C-33 54 -33 54 -34.6875 52 C-38.83909175 42.51064742 -38.83909175 42.51064742 -36.6875 36.9375 C-36.39617188 36.2053125 -36.10484375 35.473125 -35.8046875 34.71875 C-34.12334787 29.03810736 -34.22500741 22.88898691 -34 17 C-33.34 17 -32.68 17 -32 17 C-31.75701172 16.23921143 -31.51402344 15.47842285 -31.26367188 14.69458008 C-29.0826313 10.04385658 -24.79451025 8.24124417 -20.5 5.6875 C-19.63890625 5.13771484 -18.7778125 4.58792969 -17.890625 4.02148438 C-12.02135521 0.48498574 -6.88841672 -1.38494 0 0 Z M12 8 C12.33 8.66 12.66 9.32 13 10 C13.66 9.34 14.32 8.68 15 8 C14.01 8 13.02 8 12 8 Z M21 11 C20.01 12.485 20.01 12.485 19 14 C19.99 15.485 19.99 15.485 21 17 C21.38499891 18.65549531 21.72793135 20.3222433 22 22 C22.33 22 22.66 22 23 22 C23 18.7 23 15.4 23 12 C22.34 11.67 21.68 11.34 21 11 Z M-7 12 C-7 12.99 -7 13.98 -7 15 C-5.783125 15.433125 -4.56625 15.86625 -3.3125 16.3125 C-0.67383708 17.28684726 1.40212274 18.2502097 3.8125 19.75 C4.534375 20.1625 5.25625 20.575 6 21 C6.99 20.67 7.98 20.34 9 20 C7.54462432 19.16151196 6.08559627 18.32936066 4.625 17.5 C3.81289062 17.0359375 3.00078125 16.571875 2.1640625 16.09375 C0.10663126 14.84964141 0.10663126 14.84964141 -2 15 C-2 14.01 -2 13.02 -2 12 C-3.65 12 -5.3 12 -7 12 Z M-15 18 C-15.721875 18.165 -16.44375 18.33 -17.1875 18.5 C-19.40546281 18.89906646 -19.40546281 18.89906646 -21 22 C-20.68493373 25.14221967 -20.68493373 25.14221967 -20 28 C-19.01 28.33 -18.02 28.66 -17 29 C-17 29.66 -17 30.32 -17 31 C-10.0030827 32.74922933 -3.19270839 33.53752467 4 34 C4.33 35.65 4.66 37.3 5 39 C8.00259517 39.33218192 8.00259517 39.33218192 9.6875 37.5 C10.120625 37.005 10.55375 36.51 11 36 C8.96197865 31.93975679 8.96197865 31.93975679 5 30 C4.67 29.67 4.34 29.34 4 29 C1.16600515 28.62525688 -1.65751821 28.29389149 -4.5 28 C-12.86486486 27.13513514 -12.86486486 27.13513514 -14 26 C-14.04080783 24.00041636 -14.04254356 21.99954746 -14 20 C-12.824375 19.87625 -12.824375 19.87625 -11.625 19.75 C-8.85250896 19.27193661 -8.85250896 19.27193661 -7.6875 16.9375 C-7.460625 16.298125 -7.23375 15.65875 -7 15 C-10.62031557 15 -11.95460298 16.1430506 -15 18 Z M10 20 C11 22 11 22 11 22 Z M-33 33 C-35.20808081 38.19548425 -34.93402724 41.58264203 -34 47 C-33.01 47 -32.02 47 -31 47 C-31.33 42.38 -31.66 37.76 -32 33 C-32.33 33 -32.66 33 -33 33 Z M-21 39 C-20 41 -20 41 -20 41 Z M-19 40 C-17.91744593 42.55690423 -17.91744593 42.55690423 -16 45 C-12.87204828 45.84715359 -10.23188029 46 -7 46 C-6.01 45.34 -5.02 44.68 -4 44 C-4.61488281 43.87882812 -5.22976562 43.75765625 -5.86328125 43.6328125 C-7.07564453 43.38144531 -7.07564453 43.38144531 -8.3125 43.125 C-9.11300781 42.96257812 -9.91351563 42.80015625 -10.73828125 42.6328125 C-13 42 -13 42 -16 40 C-16.99 40 -17.98 40 -19 40 Z M-28 49 C-27 51 -27 51 -27 51 Z " fill="#1258E3" transform="translate(69,33)"/>
<path d="M0 0 C1.75726237 2.982021 2.18760026 4.61489102 1.5 8 C1.13346909 10.46033874 0.99428388 11.9721339 1.5 14.4375 C3.88974648 16.92681925 6.63982055 16.6206249 10 17 C12.87491894 17.66265862 15.50644726 18.39439531 18 20 C19 23.1875 19 23.1875 19 26 C18.34 25.67 17.68 25.34 17 25 C15.29636178 24.77377919 13.58671299 24.59111527 11.875 24.4375 C10.96492188 24.35371094 10.05484375 24.26992187 9.1171875 24.18359375 C8.41851562 24.12300781 7.71984375 24.06242187 7 24 C7 23.34 7 22.68 7 22 C6.236875 22.103125 5.47375 22.20625 4.6875 22.3125 C2 22 2 22 0.3125 20 C-2.81821953 12.84406964 -3.55143613 8.95847909 -0.7265625 1.6875 C-0.36691406 0.8521875 -0.36691406 0.8521875 0 0 Z " fill="#1C56DE" transform="translate(34,65)"/>
<path d="M0 0 C0.33 0 0.66 0 1 0 C1.33 4.62 1.66 9.24 2 14 C2.33 9.71 2.66 5.42 3 1 C3.33 1 3.66 1 4 1 C4 9.58 4 18.16 4 27 C3.34 27.33 2.68 27.66 2 28 C1.67 24.37 1.34 20.74 1 17 C0.67 17 0.34 17 0 17 C0 11.39 0 5.78 0 0 Z " fill="#0E61ED" transform="translate(35,50)"/>
<path d="M0 0 C2.58311477 4.4140582 1.87476641 7.06949841 1 12 C0 14 0 14 -2 15 C-3.6112798 9.28728072 -2.08989546 5.31329355 0 0 Z " fill="#2053D2" transform="translate(34,65)"/>
<path d="M0 0 C0.99 0.99 1.98 1.98 3 3 C3.33 2.01 3.66 1.02 4 0 C4.99 0.33 5.98 0.66 7 1 C6.690625 1.598125 6.38125 2.19625 6.0625 2.8125 C4.89790296 5.08956772 4.89790296 5.08956772 4 8 C0.125 6.25 0.125 6.25 -1 4 C-0.5625 1.875 -0.5625 1.875 0 0 Z " fill="#2250DE" transform="translate(75,68)"/>
<path d="M0 0 C0.94875 0.350625 1.8975 0.70125 2.875 1.0625 C5.87060172 2.35026777 5.87060172 2.35026777 8 1 C7.67 1.99 7.34 2.98 7 4 C6.01 4 5.02 4 4 4 C3.67 4.99 3.34 5.98 3 7 C2.01 6.67 1.02 6.34 0 6 C0.66 5.67 1.32 5.34 2 5 C1.34 3.35 0.68 1.7 0 0 Z " fill="#0D3ACC" transform="translate(55,77)"/>
<path d="M0 0 C-2.3125 2.0625 -2.3125 2.0625 -5 4 C-5.99 3.67 -6.98 3.34 -8 3 C-7.34 2.67 -6.68 2.34 -6 2 C-6.33 1.34 -6.66 0.68 -7 0 C-4.3333581 -1.33332095 -2.83319697 -0.67102033 0 0 Z " fill="#1B57DB" transform="translate(73,79)"/>
<path d="M0 0 C0.33 0 0.66 0 1 0 C1 5.61 1 11.22 1 17 C0.67 17 0.34 17 0 17 C0 11.39 0 5.78 0 0 Z " fill="#0073F5" transform="translate(92,61)"/>
<path d="M0 0 C2.125 0.9375 2.125 0.9375 4 2 C3.01 3.485 3.01 3.485 2 5 C1.01 5 0.02 5 -1 5 C-1.33 3.68 -1.66 2.36 -2 1 C-1.34 0.67 -0.68 0.34 0 0 Z " fill="#094AF0" transform="translate(86,42)"/>
<path d="M0 0 C0 0.33 0 0.66 0 1 C-4.0527516 1.98248524 -7.83861737 2.08159574 -12 2 C-12 1.67 -12 1.34 -12 1 C-7.9472484 0.01751476 -4.16138263 -0.08159574 0 0 Z " fill="#0053DC" transform="translate(73,63)"/>
<path d="M0 0 C0 0.33 0 0.66 0 1 C-4.0527516 1.98248524 -7.83861737 2.08159574 -12 2 C-12 1.67 -12 1.34 -12 1 C-7.93631321 0.22596442 -4.13574827 -0.0984702 0 0 Z " fill="#0056F0" transform="translate(66,62)"/>
<path d="M0 0 C3.63 0 7.26 0 11 0 C11 0.33 11 0.66 11 1 C7.37 1 3.74 1 0 1 C0 0.67 0 0.34 0 0 Z " fill="#0056E0" transform="translate(77,37)"/>
<path d="M0 0 C1.65 0 3.3 0 5 0 C5 0.33 5 0.66 5 1 C3.35 1 1.7 1 0 1 C0 0.67 0 0.34 0 0 Z " fill="#0054DD" transform="translate(61,95)"/>
<path d="M0 0 C0.33 0 0.66 0 1 0 C1 1.65 1 3.3 1 5 C0.67 5 0.34 5 0 5 C0 3.35 0 1.7 0 0 Z " fill="#004DEC" transform="translate(35,72)"/>
<path d="M0 0 C1 4 1 4 1 4 Z " fill="#00007F" transform="translate(29,73)"/>
<path d="M0 0 C1 4 1 4 1 4 Z " fill="#004FFF" transform="translate(30,69)"/>
<path d="M0 0 C4 1 4 1 4 1 Z " fill="#0074E9" transform="translate(68,65)"/>
<path d="M0 0 C1 4 1 4 1 4 Z " fill="#006ABF" transform="translate(52,55)"/>
<path d="M0 0 C1 4 1 4 1 4 Z " fill="#005CF2" transform="translate(49,55)"/>
<path d="M0 0 C1 4 1 4 1 4 Z " fill="#0044E9" transform="translate(96,51)"/>
<path d="M0 0 C0 3 0 3 0 3 Z " fill="#006ADF" transform="translate(90,45)"/>
<path d="M0 0 C4 1 4 1 4 1 Z " fill="#0059D8" transform="translate(62,46)"/>
<path d="M0 0 C4 1 4 1 4 1 Z " fill="#00AAD4" transform="translate(62,32)"/>
<path d="M0 0 C3 1 3 1 3 1 Z " fill="#003FE9" transform="translate(38,87)"/>
<path d="" fill="#0038FF" transform="translate(0,0)"/>
<path d="" fill="#0031E2" transform="translate(0,0)"/>
<path d="" fill="#0069BF" transform="translate(0,0)"/>
<path d="M0 0 C2 1 2 1 2 1 Z " fill="#007FFF" transform="translate(56,92)"/>
<path d="M0 0 C2 1 2 1 2 1 Z " fill="#007FFF" transform="translate(75,89)"/>
<path d="" fill="#002AFF" transform="translate(0,0)"/>
<path d="" fill="#003FFF" transform="translate(0,0)"/>
<path d="" fill="#005DFF" transform="translate(0,0)"/>
<path d="M0 0 C2 1 2 1 2 1 Z " fill="#006AFF" transform="translate(60,77)"/>
<path d="M0 0 C2 1 2 1 2 1 Z " fill="#007FFF" transform="translate(53,76)"/>
<path d="" fill="#00AAFF" transform="translate(0,0)"/>
<path d="" fill="#002AFF" transform="translate(0,0)"/>
<path d="" fill="#003FFF" transform="translate(0,0)"/>
<path d="" fill="#006AD4" transform="translate(0,0)"/>
<path d="" fill="#003F5F" transform="translate(0,0)"/>
<path d="M0 0 C2 1 2 1 2 1 Z " fill="#006AD4" transform="translate(57,51)"/>
<path d="" fill="#00007F" transform="translate(0,0)"/>
<path d="" fill="#003FFF" transform="translate(0,0)"/>
<path d="" fill="#003FFF" transform="translate(0,0)"/>
<path d="M0 0 C2 1 2 1 2 1 Z " fill="#006AFF" transform="translate(88,38)"/>
<path d="" fill="#007FFF" transform="translate(0,0)"/>
<path d="" fill="#007F7F" transform="translate(0,0)"/>
<path d="" fill="#0000FF" transform="translate(0,0)"/>
<path d="" fill="#003FBF" transform="translate(0,0)"/>
<path d="" fill="#0055FF" transform="translate(0,0)"/>
<path d="" fill="#0066CC" transform="translate(0,0)"/>
<path d="" fill="#0055FF" transform="translate(0,0)"/>
<path d="" fill="#000000" transform="translate(0,0)"/>
<path d="" fill="#0055AA" transform="translate(0,0)"/>
<path d="" fill="#0000FF" transform="translate(0,0)"/>
<path d="" fill="#0055FF" transform="translate(0,0)"/>
<path d="" fill="#0000FF" transform="translate(0,0)"/>
<path d="" fill="#007FFF" transform="translate(0,0)"/>
<path d="" fill="#007FFF" transform="translate(0,0)"/>
</svg>
