<?xml version="1.0" encoding="UTF-8"?>
<svg version="1.1" xmlns="http://www.w3.org/2000/svg" width="280" height="280">
<path d="M0 0 C0.98703918 0.00273422 0.98703918 0.00273422 1.99401855 0.00552368 C12.11129349 0.05261573 21.38423288 0.69338679 31.1875 3.3125 C32.65080203 3.66895395 34.1143571 4.02437026 35.578125 4.37890625 C56.74160134 9.69342042 76.72455833 19.84506641 93.1875 34.3125 C93.1875 34.9725 93.1875 35.6325 93.1875 36.3125 C93.77015625 36.5703125 94.3528125 36.828125 94.953125 37.09375 C97.3677903 38.41084017 99.00490177 39.86338384 100.9375 41.8125 C101.55109375 42.4209375 102.1646875 43.029375 102.796875 43.65625 C104.1875 45.3125 104.1875 45.3125 104.1875 47.3125 C104.8475 47.3125 105.5075 47.3125 106.1875 47.3125 C108.02336159 49.58932835 109.74267687 51.87134073 111.4375 54.25 C111.90285156 54.89001953 112.36820313 55.53003906 112.84765625 56.18945312 C114.31297232 58.21788653 115.75406776 60.26142152 117.1875 62.3125 C117.69539063 63.03421387 118.20328125 63.75592773 118.7265625 64.49951172 C122.26370762 69.64475612 125.14614779 74.86247006 127.6875 80.5625 C128.06914307 81.41658447 128.45078613 82.27066895 128.84399414 83.15063477 C131.54646003 89.39798961 133.74357885 95.71039018 135.625 102.25 C135.97691406 103.47154785 135.97691406 103.47154785 136.3359375 104.71777344 C139.51547586 116.443497 140.55352792 128.00131369 140.5 140.125 C140.49726578 141.11203918 140.49726578 141.11203918 140.49447632 142.11901855 C140.44738427 152.23629349 139.80661321 161.50923288 137.1875 171.3125 C136.83104605 172.77580203 136.47562974 174.2393571 136.12109375 175.703125 C130.80657958 196.86660134 120.65493359 216.84955833 106.1875 233.3125 C105.5275 233.3125 104.8675 233.3125 104.1875 233.3125 C103.9296875 233.89515625 103.671875 234.4778125 103.40625 235.078125 C102.08915983 237.4927903 100.63661616 239.12990177 98.6875 241.0625 C98.0790625 241.67609375 97.470625 242.2896875 96.84375 242.921875 C95.1875 244.3125 95.1875 244.3125 93.1875 244.3125 C93.1875 244.9725 93.1875 245.6325 93.1875 246.3125 C90.91067165 248.14836159 88.62865927 249.86767687 86.25 251.5625 C85.60998047 252.02785156 84.96996094 252.49320313 84.31054688 252.97265625 C82.28211347 254.43797232 80.23857848 255.87906776 78.1875 257.3125 C77.46578613 257.82039063 76.74407227 258.32828125 76.00048828 258.8515625 C70.85524388 262.38870762 65.63752994 265.27114779 59.9375 267.8125 C58.65637329 268.3849646 58.65637329 268.3849646 57.34936523 268.96899414 C51.10201039 271.67146003 44.78960982 273.86857885 38.25 275.75 C37.02845215 276.10191406 37.02845215 276.10191406 35.78222656 276.4609375 C24.056503 279.64047586 12.49868631 280.67852792 0.375 280.625 C-0.61203918 280.62226578 -0.61203918 280.62226578 -1.61901855 280.61947632 C-11.73629349 280.57238427 -21.00923288 279.93161321 -30.8125 277.3125 C-32.27580203 276.95604605 -33.7393571 276.60062974 -35.203125 276.24609375 C-56.36660134 270.93157958 -76.34955833 260.77993359 -92.8125 246.3125 C-92.8125 245.6525 -92.8125 244.9925 -92.8125 244.3125 C-93.39515625 244.0546875 -93.9778125 243.796875 -94.578125 243.53125 C-96.9927903 242.21415983 -98.62990177 240.76161616 -100.5625 238.8125 C-101.17609375 238.2040625 -101.7896875 237.595625 -102.421875 236.96875 C-103.8125 235.3125 -103.8125 235.3125 -103.8125 233.3125 C-104.4725 233.3125 -105.1325 233.3125 -105.8125 233.3125 C-107.64836159 231.03567165 -109.36767687 228.75365927 -111.0625 226.375 C-111.76052734 225.4149707 -111.76052734 225.4149707 -112.47265625 224.43554688 C-113.93797232 222.40711347 -115.37906776 220.36357848 -116.8125 218.3125 C-117.57433594 217.2299292 -117.57433594 217.2299292 -118.3515625 216.12548828 C-121.88870762 210.98024388 -124.77114779 205.76252994 -127.3125 200.0625 C-127.69414307 199.20841553 -128.07578613 198.35433105 -128.46899414 197.47436523 C-131.17146003 191.22701039 -133.36857885 184.91460982 -135.25 178.375 C-135.60191406 177.15345215 -135.60191406 177.15345215 -135.9609375 175.90722656 C-139.14047586 164.181503 -140.17852792 152.62368631 -140.125 140.5 C-140.12317719 139.84197388 -140.12135437 139.18394775 -140.11947632 138.50598145 C-140.07238427 128.38870651 -139.43161321 119.11576712 -136.8125 109.3125 C-136.45604605 107.84919797 -136.10062974 106.3856429 -135.74609375 104.921875 C-130.43157958 83.75839866 -120.27993359 63.77544167 -105.8125 47.3125 C-105.1525 47.3125 -104.4925 47.3125 -103.8125 47.3125 C-103.42578125 46.43851563 -103.42578125 46.43851563 -103.03125 45.546875 C-101.71415983 43.1322097 -100.26161616 41.49509823 -98.3125 39.5625 C-97.39984375 38.64210938 -97.39984375 38.64210938 -96.46875 37.703125 C-94.8125 36.3125 -94.8125 36.3125 -92.8125 36.3125 C-92.8125 35.6525 -92.8125 34.9925 -92.8125 34.3125 C-90.53567165 32.47663841 -88.25365927 30.75732313 -85.875 29.0625 C-85.23498047 28.59714844 -84.59496094 28.13179687 -83.93554688 27.65234375 C-81.90711347 26.18702768 -79.86357848 24.74593224 -77.8125 23.3125 C-77.09078613 22.80460937 -76.36907227 22.29671875 -75.62548828 21.7734375 C-70.48024388 18.23629238 -65.26252994 15.35385221 -59.5625 12.8125 C-58.70841553 12.43085693 -57.85433105 12.04921387 -56.97436523 11.65600586 C-50.72701039 8.95353997 -44.41460982 6.75642115 -37.875 4.875 C-36.65345215 4.52308594 -36.65345215 4.52308594 -35.40722656 4.1640625 C-23.681503 0.98452414 -12.12368631 -0.05352792 0 0 Z " fill="#0051FC" transform="translate(139.8125,-0.3125)"/>
<path d="M0 0 C0.59022949 0.28504395 1.18045898 0.57008789 1.78857422 0.86376953 C10.79521979 5.24293474 18.57108434 10.19679699 26 17 C26.85207031 17.77085938 27.70414063 18.54171875 28.58203125 19.3359375 C46.55226009 36.39523308 57.44767573 60.32920917 58.12109375 85.08984375 C58.67425321 114.55815666 48.91873939 139.51896099 28.6875 160.75 C16.08257755 172.89656163 0.07004983 181.88640067 -17 186 C-17.7108374 186.1762793 -18.4216748 186.35255859 -19.15405273 186.53417969 C-44.79057193 192.30013131 -69.66260949 186.84064962 -92.1875 174.25 C-114.33214626 160.23251348 -128.33981678 139.21465572 -136.2734375 114.5859375 C-137.37724447 109.138116 -137.57368095 103.54214769 -138 98 C-90.15 98 -42.3 98 7 98 C7 92.72 7 87.44 7 82 C-40.85 82 -88.7 82 -138 82 C-136.83039906 65.62558685 -136.83039906 65.62558685 -134.5 59.125 C-134.23791748 58.37452393 -133.97583496 57.62404785 -133.70581055 56.85083008 C-124.47626262 31.63187871 -105.79720864 11.84343398 -81.625 0.3125 C-56.64733395 -11.23302924 -24.96856216 -12.40373733 0 0 Z " fill="#FDFEFF" transform="translate(180,50)"/>
</svg>
